<?xml version="1.0" encoding="utf-8"?>
<!-- Generator: Adobe Illustrator 24.0.3, SVG Export Plug-In . SVG Version: 6.00 Build 0)  -->
<svg version="1.1" id="Layer_1" xmlns="http://www.w3.org/2000/svg" xmlns:xlink="http://www.w3.org/1999/xlink" x="0px" y="0px"
	 viewBox="0 0 100 100" style="enable-background:new 0 0 100 100;" xml:space="preserve">
<style type="text/css">
	.st0{fill-rule:evenodd;clip-rule:evenodd;fill:#ee2e5d;;}
</style>
<g id="Page-1">
	<g id="logo">
		<g id="Mobile">
			<path id="Fill-1" class="st0" d="M65.5,58.7c0,3.4-2.7,6.1-5.9,6.1c-0.7,0-1.2-0.6-1.2-1.3l0.1-27c0-0.7,0.6-1.3,1.2-1.3l4.7,0
				c0.7,0,1.2,0.6,1.2,1.3L65.5,58.7L65.5,58.7z M52.3,64.8l-4.7,0c-0.7,0-1.2-0.6-1.2-1.3l0.1-19.6c0-0.7,0.6-1.3,1.2-1.3l4.7,0
				c0.7,0,1.2,0.6,1.2,1.3l-0.1,19.6C53.6,64.2,53,64.8,52.3,64.8L52.3,64.8z M40.4,64.7l-4.7,0c-0.7,0-1.2-0.6-1.2-1.3l0.1-23.2
				c0-0.7,0.6-1.3,1.2-1.3l4.7,0c0.7,0,1.2,0.6,1.2,1.3l-0.1,23.2C41.6,64.2,41.1,64.7,40.4,64.7L40.4,64.7z M58.5,19.2l-16.7-0.1
				C29.3,19,19.1,29.5,19.1,42.5l-0.2,36.9c0,0.7,0.6,1.3,1.2,1.3l38.1,0.2C70.8,81,81,70.5,81,57.5l0.1-14.7
				C81.2,29.8,71.1,19.2,58.5,19.2L58.5,19.2z"/>
		</g>
	</g>
</g>
</svg>